<svg id="Layer_1" data-name="Layer 1" xmlns="http://www.w3.org/2000/svg" viewBox="0 0 45 45"><defs><style>.cls-1{fill:#235789;}</style></defs><path class="cls-1" d="M22.5,39.5a17,17,0,1,1,17-17A17,17,0,0,1,22.5,39.5Zm0-33a16,16,0,1,0,16,16A16,16,0,0,0,22.5,6.5Z"/><path class="cls-1" d="M22.4,31.18c-3.62,0-6.45-1.9-6.45-4.34a3,3,0,0,1,.31-1.33,8,8,0,0,1-1-4,7.52,7.52,0,0,1,7.27-7.73,7.52,7.52,0,0,1,7.27,7.73,8,8,0,0,1-1.15,4.16,3,3,0,0,1,.22,1.13C28.84,29.24,26,31.18,22.4,31.18Zm-5.16-5.39A2.13,2.13,0,0,0,17,26.84c0,1.84,2.45,3.34,5.45,3.34s5.44-1.53,5.44-3.34a2.11,2.11,0,0,0-.22-.93h0a.52.52,0,0,1,0-.51,7,7,0,0,0,1.13-3.85,6.52,6.52,0,0,0-6.27-6.73,6.52,6.52,0,0,0-6.27,6.73,7.1,7.1,0,0,0,1,3.69.5.5,0,0,1,0,.5Z"/><path class="cls-1" d="M30.38,25.79a2.42,2.42,0,0,1-2-1.69.5.5,0,0,1,.3-.64.49.49,0,0,1,.64.29c.19.52.71,1.09,1.05,1s1-1.05,1.33-3.67a4.13,4.13,0,0,0-.93-3.54c-1.41-1.39-3.91-1.11-3.94-1.11a.5.5,0,0,1-.55-.44.49.49,0,0,1,.43-.55c.12,0,3-.35,4.76,1.38a5.06,5.06,0,0,1,1.22,4.37c-.32,2.92-1,4.4-2.19,4.55Z"/><path class="cls-1" d="M14.62,25.79h-.16c-1.15-.15-1.87-1.63-2.19-4.55a5.06,5.06,0,0,1,1.22-4.37c1.76-1.73,4.64-1.4,4.76-1.38a.49.49,0,0,1,.43.55.5.5,0,0,1-.55.44s-2.53-.28-3.94,1.11a4.13,4.13,0,0,0-.93,3.54c.29,2.62.9,3.61,1.33,3.67s.85-.52,1.05-1a.5.5,0,1,1,.93.35A2.4,2.4,0,0,1,14.62,25.79Z"/><ellipse class="cls-1" cx="25.47" cy="20.77" rx="0.93" ry="1.14"/><ellipse class="cls-1" cx="19.69" cy="20.77" rx="0.93" ry="1.14"/><path class="cls-1" d="M22.46,27.31a2.05,2.05,0,0,1-1.88-2.12,4,4,0,0,1,3.83,0,2.05,2.05,0,0,1-1.88,2.12Z"/><path class="cls-1" d="M24,29.09a1.91,1.91,0,0,1-1.91-1.91.36.36,0,0,1,.37-.37.37.37,0,0,1,.38.37,1.16,1.16,0,0,0,2.32,0,.36.36,0,0,1,.37-.37.37.37,0,0,1,.38.37A1.92,1.92,0,0,1,24,29.09Z"/><path class="cls-1" d="M21,29.09a1.92,1.92,0,0,1-1.91-1.91.37.37,0,0,1,.38-.37.36.36,0,0,1,.37.37,1.17,1.17,0,0,0,2.33,0,.36.36,0,0,1,.37-.37.37.37,0,0,1,.38.37A1.92,1.92,0,0,1,21,29.09Z"/></svg>