<svg id="Layer_1" data-name="Layer 1" xmlns="http://www.w3.org/2000/svg" viewBox="0 0 45 45"><defs><style>.cls-1{fill:#235789;}</style></defs><path class="cls-1" d="M24.64,39a.49.49,0,0,1-.41-.22,10.36,10.36,0,0,1-.76-10.13.49.49,0,0,1,.57-.26c4.1,1,4.7-.74,4.73-.81a.49.49,0,0,1,.46-.36c1.94-.06,2.35-2.93,2.44-3.93-1.43-.59-4.7-2-5.28-2.91-.22-.33-.52-.84-.88-1.51a4.9,4.9,0,0,0-2.73-2.28,7.17,7.17,0,0,0-5.51.08A6.69,6.69,0,0,0,14.21,21c-2.06,7.23-5.4,9.58-5.54,9.68a.5.5,0,1,1-.57-.83s3.2-2.28,5.15-9.12a7.68,7.68,0,0,1,3.55-5,8.17,8.17,0,0,1,6.3-.14,5.88,5.88,0,0,1,3.28,2.75c.29.53.61,1.08.84,1.44s2.93,1.76,5.16,2.67a.51.51,0,0,1,.31.47c0,.21-.15,4.83-3.11,5.22-.38.68-1.64,2.06-5.37,1.26a9.44,9.44,0,0,0,.84,8.76.5.5,0,0,1-.13.7A.47.47,0,0,1,24.64,39Z"/><circle class="cls-1" cx="24.06" cy="20.32" r="0.85"/><path class="cls-1" d="M19.63,26l-.23,0a6,6,0,0,1-3.54-2.79,4.15,4.15,0,0,1-.49-2.57.51.51,0,0,1,.58-.41.51.51,0,0,1,.41.58,3.18,3.18,0,0,0,.36,1.9A5.17,5.17,0,0,0,19.53,25c.12,0,.22,0,.25,0,2-1.93.74-6.87.73-6.92a.5.5,0,0,1,.36-.61.51.51,0,0,1,.61.36c.06.23,1.37,5.55-1,7.88A1.17,1.17,0,0,1,19.63,26Z"/><path class="cls-1" d="M22.8,31.7h0c-7.94-.67-10.91-6.18-11-6.41a.51.51,0,0,1,.21-.68.52.52,0,0,1,.68.21c0,.06,2.85,5.26,10.22,5.89a.5.5,0,0,1,0,1Z"/><path class="cls-1" d="M31.93,25.23h-.14A2.61,2.61,0,0,1,30,23.87a2.47,2.47,0,0,1,0-1.9.5.5,0,1,1,.9.43,1.45,1.45,0,0,0,0,1.06,1.63,1.63,0,0,0,1.14.79.51.51,0,0,1,.34.62A.49.49,0,0,1,31.93,25.23Z"/><path class="cls-1" d="M22.5,39.5a17,17,0,1,1,17-17A17,17,0,0,1,22.5,39.5Zm0-33a16,16,0,1,0,16,16A16,16,0,0,0,22.5,6.5Z"/></svg>