<svg id="Layer_1" data-name="Layer 1" xmlns="http://www.w3.org/2000/svg" viewBox="0 0 45 45"><defs><style>.cls-1{fill:#235789;}</style></defs><path class="cls-1" d="M15.39,31.94a4.28,4.28,0,1,1,4.28-4.58h0a4.29,4.29,0,0,1-4,4.57Zm0-7.56h-.23a3.28,3.28,0,0,0-3,3.51,3.29,3.29,0,0,0,3.5,3,3.28,3.28,0,0,0-.23-6.55Z"/><path class="cls-1" d="M14.87,39.05a.5.5,0,0,1-.47-.33l-.76-2A9.7,9.7,0,0,1,11.36,36L9.55,37.11a.51.51,0,0,1-.59,0l-2-1.7a.49.49,0,0,1-.13-.58l.87-2a9.12,9.12,0,0,1-1.07-2.14L4.58,30.2a.51.51,0,0,1-.39-.45L4,27.16a.51.51,0,0,1,.32-.5l2-.77a9.33,9.33,0,0,1,.76-2.27L6,21.81a.5.5,0,0,1,0-.6l1.7-2a.52.52,0,0,1,.58-.13l2,.88a8.93,8.93,0,0,1,2.14-1.07l.47-2.09a.52.52,0,0,1,.46-.39l2.59-.18a.49.49,0,0,1,.5.32l.76,2a9.06,9.06,0,0,1,2.27.76l1.82-1.14a.5.5,0,0,1,.59,0l2,1.71a.49.49,0,0,1,.13.58l-.87,1.95a9.19,9.19,0,0,1,1.07,2.15l2.09.47a.49.49,0,0,1,.38.45l.19,2.59a.53.53,0,0,1-.32.51l-2,.76a9.06,9.06,0,0,1-.76,2.27l1.14,1.82a.48.48,0,0,1-.05.59l-1.7,2a.49.49,0,0,1-.58.13l-2-.87a8.93,8.93,0,0,1-2.14,1.07l-.48,2.08a.48.48,0,0,1-.45.39L14.9,39Zm-3.53-4.16a.46.46,0,0,1,.23.06,8,8,0,0,0,2.51.84.52.52,0,0,1,.39.31L15.2,38l1.85-.13.46-2a.53.53,0,0,1,.34-.37,8,8,0,0,0,2.36-1.18.53.53,0,0,1,.5-.05l1.88.84,1.21-1.41L22.71,32a.5.5,0,0,1,0-.49A8.08,8.08,0,0,0,23.53,29a.49.49,0,0,1,.32-.39l1.91-.73L25.63,26l-2-.45a.5.5,0,0,1-.36-.34,8.51,8.51,0,0,0-1.19-2.37.52.52,0,0,1,0-.5l.84-1.87-1.4-1.22-1.74,1.1a.52.52,0,0,1-.5,0,8.08,8.08,0,0,0-2.51-.84.49.49,0,0,1-.39-.32l-.73-1.92-1.85.13-.46,2a.5.5,0,0,1-.34.36A8,8,0,0,0,10.58,21a.5.5,0,0,1-.49.05l-1.88-.84L7,21.59l1.1,1.74a.52.52,0,0,1,0,.5,8,8,0,0,0-.84,2.51.53.53,0,0,1-.32.39L5,27.46l.13,1.85,2,.46a.5.5,0,0,1,.36.34,8.19,8.19,0,0,0,1.19,2.36.53.53,0,0,1,0,.5l-.84,1.88,1.4,1.21L11.07,35A.53.53,0,0,1,11.34,34.89Z"/><path class="cls-1" d="M31.47,19.1a3.65,3.65,0,0,1-3.62-3.38,3.63,3.63,0,0,1,3.37-3.87,3.65,3.65,0,0,1,3.88,3.36h0a3.67,3.67,0,0,1-.88,2.64,3.63,3.63,0,0,1-2.49,1.24Zm0-6.26h-.19a2.63,2.63,0,1,0,2.81,2.44h0a2.62,2.62,0,0,0-2.62-2.44Z"/><path class="cls-1" d="M31,25a.48.48,0,0,1-.46-.32L30,23.05a7.85,7.85,0,0,1-1.81-.6l-1.46.91a.49.49,0,0,1-.59,0l-1.63-1.41a.49.49,0,0,1-.13-.58L25,19.75A7.41,7.41,0,0,1,24.18,18l-1.68-.38a.51.51,0,0,1-.39-.45L22,15.06a.51.51,0,0,1,.32-.5l1.61-.62a7.88,7.88,0,0,1,.61-1.81l-.92-1.46a.48.48,0,0,1,.05-.59L25,8.45a.52.52,0,0,1,.59-.12l1.57.7a7.58,7.58,0,0,1,1.71-.85l.38-1.69a.5.5,0,0,1,.46-.38L31.88,6a.49.49,0,0,1,.5.32L33,7.89a7.4,7.4,0,0,1,1.81.6l1.46-.92a.5.5,0,0,1,.59,0L38.49,9a.51.51,0,0,1,.13.58l-.71,1.58a7.34,7.34,0,0,1,.86,1.7l1.68.39a.51.51,0,0,1,.39.45L41,15.87a.53.53,0,0,1-.32.51L39.06,17a7.72,7.72,0,0,1-.61,1.81l.92,1.46a.5.5,0,0,1,0,.6l-1.4,1.62a.51.51,0,0,1-.59.13l-1.57-.7a8,8,0,0,1-1.71.85l-.38,1.68a.51.51,0,0,1-.46.39L31.07,25Zm-2.92-3.61a.53.53,0,0,1,.24.06,6.71,6.71,0,0,0,2,.69.47.47,0,0,1,.38.31L31.37,24l1.4-.1.37-1.6a.5.5,0,0,1,.34-.36,6.73,6.73,0,0,0,1.93-1,.53.53,0,0,1,.5-.05l1.49.67.93-1.07-.87-1.38a.47.47,0,0,1,0-.5,6.6,6.6,0,0,0,.68-2.05.49.49,0,0,1,.32-.39L40,15.57l-.09-1.4-1.6-.36a.53.53,0,0,1-.37-.34,6.63,6.63,0,0,0-1-1.94.47.47,0,0,1,0-.5l.66-1.49-1.06-.92-1.39.87a.52.52,0,0,1-.5,0,6.71,6.71,0,0,0-2.05-.69.5.5,0,0,1-.38-.31L31.58,7l-1.4.1-.37,1.59a.49.49,0,0,1-.34.37,6.49,6.49,0,0,0-1.93,1,.53.53,0,0,1-.5.05l-1.49-.67-.93,1.06.87,1.39a.47.47,0,0,1,0,.5,6.43,6.43,0,0,0-.68,2.05.51.51,0,0,1-.32.39L23,15.36l.09,1.41,1.6.36a.53.53,0,0,1,.37.34,6.7,6.7,0,0,0,1,1.93.48.48,0,0,1,0,.5l-.66,1.5,1.06.92,1.39-.87A.5.5,0,0,1,28.11,21.37Z"/></svg>