<svg id="Layer_1" data-name="Layer 1" xmlns="http://www.w3.org/2000/svg" viewBox="0 0 45 45"><defs><style>.cls-1{fill:#235789;}</style></defs><path class="cls-1" d="M37.46,33.86a1.44,1.44,0,0,1-1-.39l-5.94-5.62H15.07a2.35,2.35,0,0,1-2.34-2.35V10.34A2.34,2.34,0,0,1,15.07,8H36.55a2.34,2.34,0,0,1,2.34,2.34V32.43A1.41,1.41,0,0,1,38,33.74,1.42,1.42,0,0,1,37.46,33.86ZM15.07,9a1.34,1.34,0,0,0-1.34,1.34V25.5a1.35,1.35,0,0,0,1.34,1.35H30.75a.48.48,0,0,1,.34.13l6.09,5.76h0a.41.41,0,0,0,.46.08.42.42,0,0,0,.25-.39V10.34A1.34,1.34,0,0,0,36.55,9Z"/><path class="cls-1" d="M7.15,37a1,1,0,0,1-.41-.09A1,1,0,0,1,6.11,36V23.1a1.57,1.57,0,0,1,1.57-1.57H20.19a1.57,1.57,0,0,1,1.57,1.57v8.83a1.57,1.57,0,0,1-1.57,1.57h-8.4a1.33,1.33,0,0,0-.92.37l-3,2.85h0A1.06,1.06,0,0,1,7.15,37Zm.53-14.47a.57.57,0,0,0-.57.57V36l.06,0,3-2.85a2.36,2.36,0,0,1,1.61-.64h8.4a.57.57,0,0,0,.57-.57V23.1a.56.56,0,0,0-.57-.57Z"/><path class="cls-1" d="M13.22,17.13c8-1.54,7.67-8.63,7.67-8.63H15.07a1.85,1.85,0,0,0-1.85,1.84Z"/><circle class="cls-1" cx="25.89" cy="12.65" r="1.5"/><path class="cls-1" d="M33.93,24.39a4.31,4.31,0,0,1-2.48-.8,5.2,5.2,0,0,1-1.36-7,7,7,0,0,0-.18-7.75.5.5,0,1,1,.8-.6,8,8,0,0,1,.21,8.89A4.2,4.2,0,0,0,32,22.77c1.81,1.27,4,.58,5.82-1.85a.5.5,0,1,1,.79.61C37.07,23.62,35.4,24.39,33.93,24.39Z"/></svg>