<svg id="Layer_1" data-name="Layer 1" xmlns="http://www.w3.org/2000/svg" viewBox="0 0 45 45"><defs><style>.cls-1{fill:#235789;}</style></defs><path class="cls-1" d="M20.82,32.05,20,32a6.17,6.17,0,0,1-4.43-2.19,6.77,6.77,0,0,1-1.08-5.42c.07-.43,1.61-9.32,13.41-8.65,8.25.46,12.78,4.3,13.5,7.66a3.7,3.7,0,0,1-2,4.25,5,5,0,0,1-4.23.37c-1.84-.48-3.92-1-10.14,3A8.16,8.16,0,0,1,20.82,32.05Zm5.82-15.33c-10,0-11.11,7.5-11.16,7.83v0a5.74,5.74,0,0,0,.88,4.64A5.19,5.19,0,0,0,20.07,31a7.83,7.83,0,0,0,4.4-.8c6.59-4.3,9-3.67,10.93-3.16a4.08,4.08,0,0,0,3.52-.29,2.71,2.71,0,0,0,1.5-3.15c-.66-3.1-5.19-6.46-12.58-6.88ZM15,24.49h0Z"/><path class="cls-1" d="M20.8,35.44l-.8,0a6.21,6.21,0,0,1-4.43-2.2,6.76,6.76,0,0,1-1.08-5.4s0-.18,0-.42a.5.5,0,0,1,.52-.45.49.49,0,0,1,.48.49h0c0,.28,0,.42,0,.43a5.81,5.81,0,0,0,.87,4.72,5.15,5.15,0,0,0,3.71,1.82,7.8,7.8,0,0,0,4.4-.8c6.59-4.3,9-3.67,10.93-3.16a4.08,4.08,0,0,0,3.52-.29,2.64,2.64,0,0,0,1.58-2.43.5.5,0,0,1,.5-.51h0a.5.5,0,0,1,.5.5,3.66,3.66,0,0,1-2.12,3.33,5,5,0,0,1-4.23.37c-1.84-.48-3.92-1-10.14,3A8.22,8.22,0,0,1,20.8,35.44Z"/><path class="cls-1" d="M41,28.22a.5.5,0,0,1-.5-.5l0-3a.51.51,0,0,1,.5-.51h0a.5.5,0,0,1,.5.5l0,3a.5.5,0,0,1-.5.5Z"/><path class="cls-1" d="M15.78,29.76a.4.4,0,0,1-.15,0,.49.49,0,0,1-.33-.62L18.84,18a.5.5,0,1,1,1,.3L16.25,29.41A.49.49,0,0,1,15.78,29.76Z"/><path class="cls-1" d="M19.25,31.92a.45.45,0,0,1-.16,0,.5.5,0,0,1-.32-.63l4.76-15a.49.49,0,0,1,.63-.32.49.49,0,0,1,.32.62l-4.76,15A.49.49,0,0,1,19.25,31.92Z"/><path class="cls-1" d="M23.47,31.69l-.16,0A.51.51,0,0,1,23,31l4.74-14.91a.49.49,0,0,1,.62-.32.49.49,0,0,1,.33.62L23.94,31.34A.5.5,0,0,1,23.47,31.69Z"/><path class="cls-1" d="M28.46,29a.39.39,0,0,1-.15,0,.51.51,0,0,1-.33-.63l3.7-11.64a.49.49,0,0,1,.63-.32.49.49,0,0,1,.32.62L28.94,28.67A.5.5,0,0,1,28.46,29Z"/><path class="cls-1" d="M33,27.71a.39.39,0,0,1-.15,0,.5.5,0,0,1-.33-.63l2.86-9a.51.51,0,0,1,.63-.33.51.51,0,0,1,.33.63l-2.86,9A.5.5,0,0,1,33,27.71Z"/><path class="cls-1" d="M37,28.33a.39.39,0,0,1-.15,0,.49.49,0,0,1-.32-.63l2.28-7.21a.5.5,0,0,1,1,.3L37.46,28A.5.5,0,0,1,37,28.33Z"/><path class="cls-1" d="M10.56,27.44c-.29,0-.58,0-.89,0a6.32,6.32,0,0,1-6-4.86,9.09,9.09,0,0,1,0-3.46c0-.08,1.52-10.24,14.7-9.48,8.33.48,12.94,4.11,14.35,7.07a.5.5,0,0,1-.24.67.49.49,0,0,1-.66-.24c-1.3-2.71-5.62-6.05-13.51-6.5C6.07,9.92,4.69,18.85,4.64,19.23a8.18,8.18,0,0,0,0,3.09,5.38,5.38,0,0,0,5.08,4.09,8.59,8.59,0,0,0,4.85-.88.51.51,0,0,1,.69.16.49.49,0,0,1-.16.69A9,9,0,0,1,10.56,27.44Z"/><path class="cls-1" d="M10.55,31.15c-.28,0-.58,0-.88,0a6.7,6.7,0,0,1-4.84-2.4,7.26,7.26,0,0,1-1.18-5.9,2.32,2.32,0,0,1,0-.44.48.48,0,0,1,.49-.49.51.51,0,0,1,.5.51c0,.33,0,.47,0,.48a6.5,6.5,0,0,0,1,5.23,5.76,5.76,0,0,0,4.12,2,8.69,8.69,0,0,0,4.86-.89l.82-.53a.5.5,0,1,1,.54.85l-.82.52A8.91,8.91,0,0,1,10.55,31.15Z"/><path class="cls-1" d="M10.6,22.44a2.65,2.65,0,0,1-2.87-2.35,2.66,2.66,0,0,1,2.87-2.35,2.66,2.66,0,0,1,2.88,2.35A2.65,2.65,0,0,1,10.6,22.44Zm0-3.7c-1,0-1.87.62-1.87,1.35s.86,1.35,1.87,1.35,1.88-.62,1.88-1.35S11.62,18.74,10.6,18.74Z"/></svg>