<svg id="Layer_1" data-name="Layer 1" xmlns="http://www.w3.org/2000/svg" viewBox="0 0 45 45"><defs><style>.cls-1{fill:#235789;}</style></defs><path class="cls-1" d="M11.87,30.68A8.53,8.53,0,0,1,8.81,14.19a.31.31,0,0,1,0-.1,6.6,6.6,0,0,1,13.19,0,6.49,6.49,0,0,1-.47,2.4,7.4,7.4,0,0,1-3.33,14,7.22,7.22,0,0,1-2.84-.58A8.38,8.38,0,0,1,11.87,30.68ZM15.39,8.5A5.6,5.6,0,0,0,9.8,14.09a1.11,1.11,0,0,0,0,.19l0,.21A.53.53,0,0,1,9.5,15a7.53,7.53,0,0,0,2.37,14.67,7.41,7.41,0,0,0,3.26-.75.51.51,0,0,1,.42,0,6.32,6.32,0,0,0,2.64.58A6.4,6.4,0,0,0,20.67,17.2a.5.5,0,0,1-.28-.29.48.48,0,0,1,0-.39,5.55,5.55,0,0,0-5-8Z"/><path class="cls-1" d="M14.47,37.5A.5.5,0,0,1,14,37V17.41a.5.5,0,0,1,.5-.5.5.5,0,0,1,.5.5V37A.5.5,0,0,1,14.47,37.5Z"/><path class="cls-1" d="M14.47,28.4a.52.52,0,0,1-.44-.25.5.5,0,0,1,.19-.68L19,24.73a.5.5,0,0,1,.5.86l-4.74,2.74A.47.47,0,0,1,14.47,28.4Z"/><path class="cls-1" d="M14.47,21.31a.52.52,0,0,1-.44-.25.5.5,0,0,1,.19-.68l4.26-2.46a.5.5,0,0,1,.5.86l-4.26,2.46A.47.47,0,0,1,14.47,21.31Z"/><path class="cls-1" d="M14.47,24.46a.54.54,0,0,1-.25-.06l-4.07-2.35a.52.52,0,0,1-.19-.69.51.51,0,0,1,.69-.18l4.07,2.35a.5.5,0,0,1,.18.68A.48.48,0,0,1,14.47,24.46Z"/><path class="cls-1" d="M41.16,37.5H3.84a.5.5,0,0,1,0-1H41.16a.5.5,0,0,1,0,1Z"/><path class="cls-1" d="M33.37,18.57A3.59,3.59,0,1,1,37,15,3.59,3.59,0,0,1,33.37,18.57Zm0-6.18A2.59,2.59,0,1,0,36,15,2.59,2.59,0,0,0,33.37,12.39Z"/><path class="cls-1" d="M33.37,10.75a.51.51,0,0,1-.5-.5V8.81a.5.5,0,0,1,.5-.5.5.5,0,0,1,.5.5v1.44A.5.5,0,0,1,33.37,10.75Z"/><path class="cls-1" d="M30,12.13a.5.5,0,0,1-.36-.14l-1-1a.5.5,0,0,1,0-.71.5.5,0,0,1,.7,0l1,1a.51.51,0,0,1,0,.71A.49.49,0,0,1,30,12.13Z"/><path class="cls-1" d="M28.64,15.48H27.2a.5.5,0,0,1,0-1h1.44a.5.5,0,0,1,0,1Z"/><path class="cls-1" d="M29,19.84a.46.46,0,0,1-.35-.14.5.5,0,0,1,0-.71l1-1a.5.5,0,0,1,.71.71l-1,1A.47.47,0,0,1,29,19.84Z"/><path class="cls-1" d="M33.37,21.65a.5.5,0,0,1-.5-.5V19.71a.51.51,0,0,1,.5-.5.5.5,0,0,1,.5.5v1.44A.5.5,0,0,1,33.37,21.65Z"/><path class="cls-1" d="M37.74,19.84a.5.5,0,0,1-.36-.14l-1-1a.5.5,0,0,1,0-.71.5.5,0,0,1,.7,0l1,1a.5.5,0,0,1-.35.85Z"/><path class="cls-1" d="M39.54,15.48H38.11a.5.5,0,0,1,0-1h1.43a.5.5,0,0,1,0,1Z"/><path class="cls-1" d="M36.72,12.13a.46.46,0,0,1-.35-.14.5.5,0,0,1,0-.71l1-1a.51.51,0,0,1,.71,0,.5.5,0,0,1,0,.71l-1,1A.46.46,0,0,1,36.72,12.13Z"/><path class="cls-1" d="M25.71,37.5a.5.5,0,0,1-.5-.5V32.94a.5.5,0,0,1,.5-.5.5.5,0,0,1,.5.5V37A.5.5,0,0,1,25.71,37.5Z"/><path class="cls-1" d="M35.26,37.5a.5.5,0,0,1-.5-.5V32.94a.5.5,0,0,1,.5-.5.5.5,0,0,1,.5.5V37A.5.5,0,0,1,35.26,37.5Z"/><path class="cls-1" d="M37.19,33.44H23.78a.5.5,0,0,1,0-1H37.19a.5.5,0,0,1,0,1Z"/></svg>